<?xml version="1.0" encoding="UTF-8"?>
<svg version="1.1" xmlns="http://www.w3.org/2000/svg" width="400" height="400">
<path d="M0 0 C132 0 264 0 400 0 C400 132 400 264 400 400 C268 400 136 400 0 400 C0 268 0 136 0 0 Z " fill="#FDFEF9" transform="translate(0,0)"/>
<path d="M0 0 C0 47.19 0 94.38 0 143 C29.37 143 58.74 143 89 143 C89 186.76470588 89 186.76470588 82.875 196.3125 C75.59523594 203.11749684 68.1158838 204.75048622 58.39453125 204.59375 C56.77112068 204.59381042 56.77112068 204.59381042 55.11491394 204.59387207 C52.83655967 204.58853988 50.55820442 204.57105672 48.2800293 204.54199219 C44.8390919 204.50032203 41.40013065 204.50091987 37.95898438 204.5078125 C11.72718324 204.43229147 -10.78837719 199.17894999 -30 180 C-30.67546875 179.33613281 -31.3509375 178.67226563 -32.046875 177.98828125 C-42.61877012 166.88779137 -49.43046998 152.68525653 -56 139 C-56.56847656 137.93394531 -57.13695312 136.86789063 -57.72265625 135.76953125 C-59.49594313 131.92469823 -59.1248719 128.95076959 -58 125 C-56.89030908 122.26845312 -55.6593686 119.62452377 -54.37890625 116.96875 C-52.98108942 113.95928599 -51.82524013 110.92875093 -50.6875 107.8125 C-45.2960208 93.5986003 -38.1673941 79.3998055 -28 68 C-34.39221434 68.64184119 -39.33484954 69.90070831 -44.00390625 74.45703125 C-54.69012884 88.07098606 -60.56972933 106.23933044 -66.50512695 122.31323242 C-91.23715958 189.17528437 -91.23715958 189.17528437 -113.25 201.875 C-118.83888884 204.16136362 -124.43776737 204.13228664 -130.375 204.0625 C-131.11105469 204.05798828 -131.84710938 204.05347656 -132.60546875 204.04882812 C-134.40368158 204.03715142 -136.20185197 204.01922011 -138 204 C-137.27683594 203.42894531 -136.55367187 202.85789062 -135.80859375 202.26953125 C-107.80038136 179.63702583 -94.48579582 143.00220201 -84.65063477 109.14013672 C-83.861481 106.54436864 -82.85867603 104.10000213 -81.75 101.625 C-79.55044716 96.4840333 -77.67960443 91.28762827 -75.875 86 C-71.74828574 73.96472427 -67.02112048 62.1708345 -62.31982422 50.35107422 C-60.56980734 45.90772762 -58.87329154 41.44462414 -57.18554688 36.97729492 C-51.08685113 21.66148055 -42.39283657 8.89679041 -27 2 C-20 0 -20 0 0 0 Z " fill="#3A4FC7" transform="translate(270,99)"/>
<path d="M0 0 C4.21491736 3.32444186 7.55399779 7.39622991 10.94140625 11.53125 C11.45703125 12.05847656 11.97265625 12.58570313 12.50390625 13.12890625 C13.69140625 14.46875 13.69140625 14.46875 14.94140625 17.53125 C14.34606273 21.35314279 13.25922364 24.90079228 11.94140625 28.53125 C10.89082031 28.60601562 9.84023437 28.68078125 8.7578125 28.7578125 C0.95790704 29.44240585 -5.05562235 30.12611188 -11.359375 35.19140625 C-13.05859375 36.53125 -13.05859375 36.53125 -16.05859375 37.53125 C-16.78151997 38.83493704 -17.43520225 40.17714319 -18.05859375 41.53125 C-19.40336042 43.55835072 -20.75900724 45.57824633 -22.12109375 47.59375 C-27.28413939 55.43400831 -31.12493681 63.78112072 -35.02392578 72.29931641 C-37.01956987 76.60421925 -39.17083272 80.82862659 -41.3125 85.0625 C-42.56732739 87.55531146 -43.80366605 90.0527116 -45.0234375 92.5625 C-56.42697255 115.93562509 -71.52816782 136.77835326 -96.89770508 145.76464844 C-106.50012422 148.98876464 -115.66132829 150.85348958 -125.78515625 150.7265625 C-126.65884857 150.7237326 -127.53254089 150.72090271 -128.43270874 150.71798706 C-131.18315189 150.70692303 -133.93325149 150.68184581 -136.68359375 150.65625 C-138.56509942 150.64620234 -140.44661026 150.63707964 -142.328125 150.62890625 C-146.90507732 150.60702912 -151.4817776 150.57259719 -156.05859375 150.53125 C-156.05859375 147.89125 -156.05859375 145.25125 -156.05859375 142.53125 C-155.40487793 142.43626221 -154.75116211 142.34127441 -154.07763672 142.2434082 C-133.77889755 139.23625368 -115.99250922 135.36859765 -100.05859375 121.53125 C-99.39859375 121.53125 -98.73859375 121.53125 -98.05859375 121.53125 C-98.05859375 120.87125 -98.05859375 120.21125 -98.05859375 119.53125 C-97.39859375 119.53125 -96.73859375 119.53125 -96.05859375 119.53125 C-96.05859375 118.87125 -96.05859375 118.21125 -96.05859375 117.53125 C-95.39859375 117.53125 -94.73859375 117.53125 -94.05859375 117.53125 C-94.05859375 116.87125 -94.05859375 116.21125 -94.05859375 115.53125 C-93.39859375 115.53125 -92.73859375 115.53125 -92.05859375 115.53125 C-91.69507812 114.74621094 -91.69507812 114.74621094 -91.32421875 113.9453125 C-89.67802945 110.80535884 -87.74756454 107.86982743 -85.80859375 104.90625 C-79.79239334 95.70376923 -74.34899962 86.43552218 -69.68359375 76.46875 C-69.20809082 75.46505371 -68.73258789 74.46135742 -68.24267578 73.42724609 C-66.10611155 68.91160428 -63.98881504 64.38724789 -61.88671875 59.85546875 C-57.26174291 49.899492 -52.28066175 40.18691167 -47.05859375 30.53125 C-46.50042969 29.48839844 -45.94226563 28.44554687 -45.3671875 27.37109375 C-43.95262797 24.74510988 -42.51233729 22.13570322 -41.05859375 19.53125 C-40.59066406 18.67015625 -40.12273437 17.8090625 -39.640625 16.921875 C-35.04877596 8.79688742 -29.49027813 1.61621943 -20.546875 -1.84375 C-13.6680921 -3.57154476 -6.24423969 -3.65007748 0 0 Z " fill="#198BDF" transform="translate(174.05859375,152.46875)"/>
<path d="M0 0 C1.258125 0.04125 2.51625 0.0825 3.8125 0.125 C2.19159696 7.56641851 -0.46307197 14.52398262 -3.1875 21.625 C-3.42949127 22.2586145 -3.67148254 22.892229 -3.92080688 23.54504395 C-8.74946445 36.18050959 -13.8017763 48.71561452 -19.1875 61.125 C-19.54440918 61.95016113 -19.90131836 62.77532227 -20.26904297 63.62548828 C-24.3314661 72.92002238 -28.69868874 81.23664122 -35.1875 89.125 C-35.82429688 89.92421875 -36.46109375 90.7234375 -37.1171875 91.546875 C-45.03402811 101.0216481 -56.65455357 109.45745111 -69.1875 111.125 C-72.45976879 111.23673421 -75.72634621 111.21923564 -79 111.1875 C-79.88365234 111.18298828 -80.76730469 111.17847656 -81.67773438 111.17382812 C-83.84768559 111.16209866 -86.01760172 111.14416495 -88.1875 111.125 C-85.54161724 109.36107816 -82.95622392 107.99236992 -80.125 106.5625 C-71.43853779 101.84633624 -64.75080866 95.18984939 -58.5625 87.55859375 C-58.10875 87.08550781 -57.655 86.61242187 -57.1875 86.125 C-56.5275 86.125 -55.8675 86.125 -55.1875 86.125 C-54.93871094 85.43148437 -54.68992188 84.73796875 -54.43359375 84.0234375 C-53.28307844 81.34731725 -51.92560918 78.97864276 -50.37060547 76.52124023 C-44.15551263 66.69760221 -39.34412151 56.25433691 -34.42285156 45.7421875 C-32.29398877 41.23202758 -30.05480802 36.78090987 -27.80078125 32.33203125 C-26.65077886 30.04594902 -25.52413321 27.75618953 -24.41796875 25.44921875 C-11.95495261 -0.39196566 -11.95495261 -0.39196566 0 0 Z " fill="#2177D5" transform="translate(177.1875,191.875)"/>
<path d="M0 0 C6.6 0 13.2 0 20 0 C20 31.35 20 62.7 20 95 C13.4 95 6.8 95 0 95 C0 63.65 0 32.3 0 0 Z " fill="#4747C1" transform="translate(310,135)"/>
<path d="M0 0 C6.27 0 12.54 0 19 0 C19 23.76 19 47.52 19 72 C12.73 72 6.46 72 0 72 C0 48.24 0 24.48 0 0 Z " fill="#4F36BA" transform="translate(340,158)"/>
<path d="M0 0 C3.03700836 3.67889972 5.02989312 7.77748136 7.1875 12 C13.17998316 23.47785366 19.88820822 33.72636467 29 43 C29.61230469 43.62519531 30.22460938 44.25039063 30.85546875 44.89453125 C36.77306383 50.48407202 43.88921723 54.15498404 51 58 C51 58.33 51 58.66 51 59 C34.28648067 59.84411714 21.59188633 57.08852182 8.578125 45.921875 C5.88684704 43.39775717 3.4389646 40.76905003 1 38 C0.50097168 37.45166504 0.00194336 36.90333008 -0.51220703 36.33837891 C-9.18462531 26.53797408 -9.18462531 26.53797408 -8.88916016 20.87597656 C-7.89647507 16.56225519 -6.07073597 12.7126597 -3.97119141 8.8359375 C-2.45463722 5.96904774 -1.24578831 2.99297749 0 0 Z " fill="#3A49C0" transform="translate(205,244)"/>
<path d="M0 0 C6.27 0 12.54 0 19 0 C19 16.5 19 33 19 50 C12.73 50 6.46 50 0 50 C0 33.5 0 17 0 0 Z " fill="#4450C4" transform="translate(281,180)"/>
<path d="M0 0 C-0.81984375 0.31453125 -1.6396875 0.6290625 -2.484375 0.953125 C-3.56203125 1.38109375 -4.6396875 1.8090625 -5.75 2.25 C-6.81734375 2.66765625 -7.8846875 3.0853125 -8.984375 3.515625 C-12.03544269 5.01744588 -13.73644416 6.50466393 -16 9 C-17.4540625 10.175625 -17.4540625 10.175625 -18.9375 11.375 C-25.44525285 16.7323925 -29.33851822 23.50268016 -33 31 C-33.66 30.67 -34.32 30.34 -35 30 C-28.80614642 16.32785317 -20.56876398 6.60030961 -7 0 C-3.86650268 -1.04449911 -3.01031744 -0.93423645 0 0 Z " fill="#2E7BCC" transform="translate(250,101)"/>
<path d="M0 0 C0.99 0 1.98 0 3 0 C3.33 0.66 3.66 1.32 4 2 C5.3153341 2.70151152 6.65117592 3.36525925 8 4 C8.99 4.66 9.98 5.32 11 6 C11 6.66 11 7.32 11 8 C11.99 8.33 12.98 8.66 14 9 C14 9.66 14 10.32 14 11 C14.598125 11.061875 15.19625 11.12375 15.8125 11.1875 C18.90339529 12.33554682 19.5880344 14.10547052 21 17 C21 17.66 21 18.32 21 19 C12.24361689 16.53726725 5.49406218 7.80913025 0 1 C0 0.67 0 0.34 0 0 Z " fill="#35419A" transform="translate(204,278)"/>
<path d="M0 0 C-4.66666667 1.33333333 -9.33333333 2.66666667 -14 4 C-14 5.32 -14 6.64 -14 8 C-13.45287354 7.96447021 -12.90574707 7.92894043 -12.34204102 7.89233398 C-0.11952016 7.12786808 11.79440167 6.9602046 24 8 C24 8.33 24 8.66 24 9 C10.8 9 -2.4 9 -16 9 C-16 6.36 -16 3.72 -16 1 C-13.70952777 0.63818911 -11.41757055 0.28576776 -9.125 -0.0625 C-7.84882813 -0.25972656 -6.57265625 -0.45695312 -5.2578125 -0.66015625 C-2 -1 -2 -1 0 0 Z " fill="#2AA4D3" transform="translate(34,294)"/>
<path d="M0 0 C1.98 0.99 3.96 1.98 6 3 C6 4.65 6 6.3 6 8 C7.32 8.33 8.64 8.66 10 9 C10.33 10.65 10.66 12.3 11 14 C7.65179102 12.53374144 5.30733641 10.66341553 2.6875 8.125 C1.96949219 7.44695312 1.25148437 6.76890625 0.51171875 6.0703125 C-1 4 -1 4 -0.73046875 1.7421875 C-0.48941406 1.16726563 -0.24835938 0.59234375 0 0 Z " fill="#3940A8" transform="translate(238,272)"/>
<path d="M0 0 C2.578125 0.020625 5.15625 0.04125 7.8125 0.0625 C7.8125 6.6625 7.8125 13.2625 7.8125 20.0625 C7.4825 20.0625 7.1525 20.0625 6.8125 20.0625 C6.8125 14.1225 6.8125 8.1825 6.8125 2.0625 C-0.36760841 1.46621521 -0.36760841 1.46621521 -3.1875 3.0625 C-5.3125 2.125 -5.3125 2.125 -7.1875 1.0625 C-7.1875 1.7225 -7.1875 2.3825 -7.1875 3.0625 C-8.5075 3.0625 -9.8275 3.0625 -11.1875 3.0625 C-11.1875 2.4025 -11.1875 1.7425 -11.1875 1.0625 C-7.42258833 -0.19247056 -3.91543525 -0.04411648 0 0 Z " fill="#1B6BC4" transform="translate(262.1875,98.9375)"/>
<path d="M0 0 C1.50433594 0.01353516 1.50433594 0.01353516 3.0390625 0.02734375 C3.80992187 0.03894531 4.58078125 0.05054688 5.375 0.0625 C5.705 2.0425 6.035 4.0225 6.375 6.0625 C5.055 6.0625 3.735 6.0625 2.375 6.0625 C2.1275 6.805 1.88 7.5475 1.625 8.3125 C0.28352699 11.26374062 -1.23405526 12.91064974 -3.625 15.0625 C-4.285 14.7325 -4.945 14.4025 -5.625 14.0625 C-4.91923828 13.15757812 -4.91923828 13.15757812 -4.19921875 12.234375 C-3.57660156 11.43515625 -2.95398438 10.6359375 -2.3125 9.8125 C-1.69761719 9.02359375 -1.08273438 8.2346875 -0.44921875 7.421875 C1.17826508 5.31694944 2.77856977 3.19107364 4.375 1.0625 C0.415 1.7225 -3.545 2.3825 -7.625 3.0625 C-7.625 2.4025 -7.625 1.7425 -7.625 1.0625 C-4.98041621 -0.25979189 -2.94738699 -0.03427194 0 0 Z " fill="#3F6CC2" transform="translate(237.625,165.9375)"/>
<path d="M0 0 C1.18800604 3.56401813 0.48894268 4.91804654 -1.05078125 8.234375 C-3.53618266 12.85742619 -7.26975646 16.37337434 -11 20 C-11.66 19.67 -12.32 19.34 -13 19 C-12.34644531 18.19949219 -12.34644531 18.19949219 -11.6796875 17.3828125 C-7.25982413 11.85319988 -3.50376654 6.14763433 0 0 Z " fill="#396BBF" transform="translate(161,270)"/>
<path d="M0 0 C0.99 0 1.98 0 3 0 C3.33 0.66 3.66 1.32 4 2 C5.3153341 2.70151152 6.65117592 3.36525925 8 4 C8.99 4.66 9.98 5.32 11 6 C11 6.66 11 7.32 11 8 C11.99 8.33 12.98 8.66 14 9 C13.67 9.66 13.34 10.32 13 11 C7.21696492 8.56050629 3.65619263 6.14152089 0 1 C0 0.67 0 0.34 0 0 Z " fill="#3446AE" transform="translate(204,278)"/>
<path d="M0 0 C0.66 0 1.32 0 2 0 C1.835 0.598125 1.67 1.19625 1.5 1.8125 C0.8885876 4.11344336 0.8885876 4.11344336 1 7 C1 7.66 1 8.32 1 9 C0.01 9.495 0.01 9.495 -1 10 C-2.05352843 12.30965848 -3.05719096 14.6429774 -4 17 C-4.33 17 -4.66 17 -5 17 C-5.27771418 12.32051602 -4.54837397 9.32416664 -2.5 5.125 C-2.0359375 4.15820312 -1.571875 3.19140625 -1.09375 2.1953125 C-0.7328125 1.47085938 -0.371875 0.74640625 0 0 Z " fill="#3373CB" transform="translate(205,157)"/>
<path d="M0 0 C0 3.51716303 -0.82445585 4.37121748 -3 7 C-0.03 7.495 -0.03 7.495 3 8 C3 8.33 3 8.66 3 9 C-1.62 9 -6.24 9 -11 9 C-9.35 7.68 -7.7 6.36 -6 5 C-4.89263257 4.08720255 -3.78786052 3.17123207 -2.6875 2.25 C-1.3571875 1.13625 -1.3571875 1.13625 0 0 Z " fill="#235EB5" transform="translate(143,294)"/>
<path d="M0 0 C0.928125 0.165 1.85625 0.33 2.8125 0.5 C5.95621353 1.07748388 5.95621353 1.07748388 9 1 C9 1.66 9 2.32 9 3 C9.84304687 2.90460938 10.68609375 2.80921875 11.5546875 2.7109375 C12.65039062 2.60007812 13.74609375 2.48921875 14.875 2.375 C16.51082031 2.20097656 16.51082031 2.20097656 18.1796875 2.0234375 C19.11039063 2.01570313 20.04109375 2.00796875 21 2 C21.66 2.66 22.32 3.32 23 4 C20.10391407 4.05413245 17.20884805 4.09373641 14.3125 4.125 C13.08756836 4.15013672 13.08756836 4.15013672 11.83789062 4.17578125 C7.42907071 4.2114802 4.01268424 4.07580814 0 2 C0 1.34 0 0.68 0 0 Z " fill="#3C359E" transform="translate(233,299)"/>
<path d="M0 0 C2.09807945 2.67744188 3.39676766 4.62189888 4 8 C3.01 7.34 2.02 6.68 1 6 C1 6.99 1 7.98 1 9 C-1 10.6875 -1 10.6875 -3 12 C-4 10 -4 10 -3.22265625 7.6171875 C-2.83980469 6.71226562 -2.45695313 5.80734375 -2.0625 4.875 C-1.68222656 3.96492187 -1.30195313 3.05484375 -0.91015625 2.1171875 C-0.60980469 1.41851562 -0.30945313 0.71984375 0 0 Z " fill="#415EBB" transform="translate(205,244)"/>
<path d="M0 0 C0.66 0 1.32 0 2 0 C1.34206835 1.67013418 0.67276716 3.3357865 0 5 C-0.474375 6.216875 -0.94875 7.43375 -1.4375 8.6875 C-3 12 -3 12 -6 14 C-4.50829734 9.0276578 -2.39542583 4.58154261 0 0 Z " fill="#3279C1" transform="translate(138,248)"/>
<path d="M0 0 C0.66 0.33 1.32 0.66 2 1 C-3 7.57142857 -3 7.57142857 -8 9 C-7.04270084 7.87411986 -6.08412105 6.7493285 -5.125 5.625 C-4.59132813 4.99851562 -4.05765625 4.37203125 -3.5078125 3.7265625 C-2.38567993 2.44163349 -1.20628025 1.20628025 0 0 Z " fill="#3B88C8" transform="translate(118,281)"/>
<path d="M0 0 C0.66 0.33 1.32 0.66 2 1 C-3.0940919 7.86214442 -3.0940919 7.86214442 -6.875 8.4375 C-7.57625 8.293125 -8.2775 8.14875 -9 8 C-6.17493137 5.0702992 -3.21203935 2.49825283 0 0 Z " fill="#2292CC" transform="translate(74,274)"/>
<path d="M0 0 C1.28222189 3.03070628 0.98589446 4.03596914 -0.25 7.1875 C-2 10 -2 10 -5 11 C-3.77472971 6.94718288 -2.30119506 3.55639236 0 0 Z " fill="#3C80C6" transform="translate(157,209)"/>
<path d="M0 0 C2.25 1.8125 2.25 1.8125 4 4 C4 4.66 4 5.32 4 6 C0.62496331 4.8141763 -1.64722731 3.72426311 -4 1 C-2.25 0.25 -2.25 0.25 0 0 Z " fill="#464FA6" transform="translate(221,291)"/>
<path d="M0 0 C0.33 0.99 0.66 1.98 1 3 C-0.62339805 4.70884005 -2.29319053 6.37446717 -4 8 C-4.66 8 -5.32 8 -6 8 C-6 7.34 -6 6.68 -6 6 C-5.34 6 -4.68 6 -4 6 C-4 5.34 -4 4.68 -4 4 C-3.34 4 -2.68 4 -2 4 C-1.34 2.68 -0.68 1.36 0 0 Z " fill="#228ACC" transform="translate(84,264)"/>
<path d="M0 0 C0.99 0.33 1.98 0.66 3 1 C-3.625 5 -3.625 5 -7 5 C-6.67 4.01 -6.34 3.02 -6 2 C-4.7934375 1.7834375 -4.7934375 1.7834375 -3.5625 1.5625 C-1.07896294 1.25864751 -1.07896294 1.25864751 0 0 Z " fill="#49229D" transform="translate(347,297)"/>
<path d="M0 0 C1 3 1 3 -0.4375 6.1875 C-1.2109375 7.5796875 -1.2109375 7.5796875 -2 9 C-2.66 8.67 -3.32 8.34 -4 8 C-2.68 5.36 -1.36 2.72 0 0 Z " fill="#4082C8" transform="translate(219,123)"/>
</svg>
